# AST/ASF file generated using VICON BodyLanguage
# -----------------------------------------------
:version 1.10
:name VICON
:units
  mass 1.0
  length 0.45
  angle deg
:documentation
   .ast/.asf automatically generated from VICON data using
   VICON BodyBuilder and BodyLanguage model FoxedUp or BRILLIANT.MOD
:root
   order TX TY TZ RX RY RZ
   axis XYZ
   position 0 0 0  
   orientation 0 0 0 
:bonedata
  begin
     id 1 
     name lhipjoint
     direction 0.612567 -0.751349 0.245431 
     length 2.42285 
     axis 0 0 0  XYZ
  end
  begin
     id 2 
     name lfemur
     direction 0.34202 -0.939693 0  
     length 7.11304  
     axis 0 0 20  XYZ
    dof rx ry rz
    limits (-160.0 20.0)
           (-70.0 70.0)
           (-60.0 70.0)
  end
  begin
     id 3 
     name ltibia
     direction 0.34202 -0.939693 0   
     length 7.84529   
     axis 0 0 20   XYZ
    dof rx
    limits (-10.0 170.0)
  end
  begin
     id 4 
     name lfoot
     direction 0.0779239 -0.214094 0.9737   
     length 1.97176   
     axis -90 7.62852e-016 20   XYZ
    dof rx rz
    limits (-45.0 90.0)
           (-70.0 20.0)
  end
  begin
     id 5 
     name ltoes
     direction 1.53565e-011 -4.21709e-011 1   
     length 0.993197   
     axis -90 7.62852e-016 20   XYZ
    dof rx
    limits (-90.0 20.0)
  end
  begin
     id 6 
     name rhipjoint
     direction -0.665722 -0.709315 0.231701   
     length 2.56642  
     axis 0 0 0  XYZ 
  end
  begin
     id 7 
     name rfemur
     direction -0.34202 -0.939693 0   
     length 7.32108   
     axis 0 0 -20   XYZ
    dof rx ry rz
    limits (-160.0 20.0)
           (-70.0 70.0)
           (-70.0 60.0)
  end
  begin
     id 8 
     name rtibia
     direction -0.34202 -0.939693 0   
     length 7.81254   
     axis 0 0 -20   XYZ
    dof rx
    limits (-10.0 170.0)
 end
 begin
     id 9 
     name rfoot
     direction -0.0832806 -0.228812 0.969902   
     length 2.08278  
     axis -90 -7.62852e-016 -20   XYZ
    dof rx rz
    limits (-45.0 90.0)
           (-20.0 70.0)
  end
  begin
     id 10 
     name rtoes
     direction -1.53589e-011 -4.22086e-011 1   
     length 1.04609   
     axis -90 -7.62852e-016 -20   XYZ
    dof rx
    limits (-90.0 20.0)
  end
  begin
     id 11 
     name lowerback
     direction -0.00506013 0.988403 -0.151766   
     length 2.01978   
     axis 0 0 0   XYZ
    dof rx ry rz
    limits (-20.0 45.0)
           (-30.0 30.0)
           (-30.0 30.0)
  end
  begin
     id 12 
     name upperback
     direction -0.00836389 0.99968 0.0238859   
     length 2.01276   
     axis 0 0 0   XYZ
    dof rx ry rz
    limits (-20.0 45.0)
           (-30.0 30.0)
           (-30.0 30.0)
  end
  begin
     id 13 
     name thorax
     direction -0.00684136 0.995386 0.0957043   
     length 2.07303   
     axis 0 0 0   XYZ
    dof rx ry rz
    limits (-20.0 45.0)
           (-30.0 30.0)
           (-30.0 30.0)
  end
  begin
     id 14 
     name lowerneck
     direction -0.0161045 0.999661 0.0204485   
     length 1.91243   
     axis 0 0 0   XYZ
    dof rx ry rz
    limits (-20.0 45.0)
           (-30.0 30.0)
           (-30.0 30.0)
  end
  begin
     id 15 
     name upperneck
     direction 0.0553583 0.990946 -0.122319   
     length 1.91574   
     axis 0 0 0   XYZ
    dof rx ry rz
    limits (-20.0 45.0)
           (-30.0 30.0)
           (-30.0 30.0)
  end
  begin
     id 16
     name head
     direction 0.0180273 0.998839 -0.0446756  
     length 1.92693  
     axis 0 0 0   XYZ
    dof rx ry rz
    limits (-20.0 45.0)
           (-30.0 30.0)
           (-30.0 30.0)
  end
  begin
     id 17 
     name lclavicle
     direction 0.945646 0.319323 -0.0615358  
     length 4.0076  
     axis 0 0 0   XYZ
    dof ry rz
    limits (-20.0 10.0)
           (0.0 20.0)
  end
  begin
     id 18 
     name lhumerus
     direction 1 -4.48967e-011 -2.79996e-027   
     length 5.64147   
     axis 180 -30 -90   XYZ
    dof rx ry rz
    limits (-60.0 90.0)
           (-90.0 90.0)
           (-90.0 90.0)
  end
  begin
     id 19
     name lradius
     direction 1 -4.48976e-011 -9.5122e-027   
     length 2.86444   
     axis 180 -30 -90   XYZ
    dof rx
    limits (-10.0 170.0)
  end
  begin
     id 20
     name lwrist
     direction 1 -4.48983e-011 -1.24047e-026   
     length 1.43222   
     axis 9.05591e-015 90 90   XYZ
    dof ry
    limits (-180.0 0.0)
 end
  begin
     id 21 
     name lhand
     direction 1 -4.4892e-011 -2.48094e-026   
     length 0.722123   
     axis 1.58305e-014 90 90   XYZ
    dof rx rz
    limits (-90.0 90.0)
           (-45.0 45.0)
  end
  begin
     id 22 
     name lfingers
     direction 1 -4.48895e-011 -4.96187e-026   
     length 0.582194   
     axis 3.1661e-014 90 90   XYZ
    dof rx
    limits (0.0 90.0)
  end
  begin
     id 23
     name lthumb
     direction 0.707107 -6.34961e-011 0.707107   
     length 0.835918   
     axis -90 45 2.85299e-015   XYZ
    dof rx rz
    limits (-45.0 45.0)
           (-45.0 45.0)
  end
  begin
     id 24 
     name rclavicle
     direction -0.932635 0.324218 -0.15835   
     length 3.65819  
     axis 0 0 0   XYZ 
    dof ry rz
    limits (-10.0 20.0)
           (-20.0 0.0)
  end
  begin
     id 25 
     name rhumerus
     direction -1 -4.48965e-011 -4.02296e-027  
     length 5.44729   
     axis 180 30 90   XYZ
    dof rx ry rz
    limits (-90.0 60.0)
           (-90.0 90.0)
           (-90.0 90.0)
  end
  begin
     id 26 
     name rradius
     direction -1 -4.48957e-011 -8.81087e-027   
     length 3.08821   
     axis 180 30 90   XYZ
    dof rx
    limits (-10.0 170.0)
  end
  begin
     id 27 
     name rwrist
     direction -1 -4.49015e-011 -1.24047e-026   
     length 1.5441   
     axis 9.05591e-015 -90 -90   XYZ
    dof ry
    limits (-180.0 0.0)
  end
  begin
     id 28
     name rhand
     direction -1 -4.4891e-011 -2.48094e-026   
     length 0.821049   
     axis 1.58305e-014 -90 -90   XYZ
    dof rx rz
    limits (-90.0 90.0)
           (-45.0 45.0)
  end
  begin
     id 29
     name rfingers
     direction -1 -4.48985e-011 -4.96187e-026   
     length 0.661951   
     axis 3.1661e-014 -90 -90   XYZ
    dof rx
    limits (0.0 90.0)
  end
  begin
     id 30
     name rthumb
     direction -0.707107 -6.34906e-011 0.707107   
     length 0.950433   
     axis -90 -45 -2.85299e-015   XYZ
    dof rx rz
    limits (-45.0 45.0)
           (-45.0 45.0)
  end
:hierarchy
  begin
    root lhipjoint rhipjoint lowerback
    lhipjoint lfemur
    lfemur ltibia
    ltibia lfoot
    lfoot ltoes
    rhipjoint rfemur
    rfemur rtibia
    rtibia rfoot
    rfoot rtoes
    lowerback upperback
    upperback thorax
    thorax lowerneck lclavicle rclavicle
    lowerneck upperneck
    upperneck head
    lclavicle lhumerus
    lhumerus lradius
    lradius lwrist
    lwrist lhand lthumb
    lhand lfingers
    rclavicle rhumerus
    rhumerus rradius
    rradius rwrist
    rwrist rhand rthumb
    rhand rfingers
  end

#!OML:ASF F:\VICON\USERDATA\INSTALL\rory3\rory3.ASF
:FULLY-SPECIFIED
:DEGREES
336
root 3.11493 17.6764 0.139444 -149.24 88.5962 -146.109
lowerback 7.75907 -0.365632 2.94547
upperback -2.44997 -0.225441 -0.722409
thorax -6.9487 -0.254672 -2.38546
lowerneck -4.53468 -5.36327 -4.93017
upperneck 1.87985 -7.12765 8.56534
head 1.95242 -3.4109 3.42879
rclavicle -1.00635e-015 9.54166e-015
rhumerus -7.58557 25.6078 -37.0078
rradius 142.461
rwrist -54.5906
rhand 21.6674 19.2782
rfingers 7.12502
rthumb 46.0851 -3.78084
lclavicle -1.00635e-015 9.54166e-015
lhumerus -5.34319 -31.6476 53.0417
lradius 137.647
lwrist 92.5809
lhand 18.2117 25.7772
lfingers 7.12502
lthumb 42.8656 50.0704
rfemur 3.59586 6.0268 19.8435
rtibia 13.5562
rfoot -20.6155 -12.7915
rtoes -5.42435
lfemur 1.78232 1.13221 -15.3289
ltibia 11.2473
lfoot -9.89253 -3.00907
ltoes -2.49572
337
root 3.1165 17.676 0.139856 -154.99 88.6266 -151.83
lowerback 7.79524 -0.367945 2.82246
upperback -2.45879 -0.242846 -0.761334
thorax -6.9792 -0.259377 -2.35474
lowerneck -4.50469 -5.3686 -4.91689
upperneck 1.85778 -7.13395 8.52594
head 1.93744 -3.41587 3.41307
rclavicle -2.96935e-015 -8.94531e-015
rhumerus -7.66557 25.6665 -37.0287
rradius 142.478
rwrist -54.5557
rhand 21.5636 19.2711
rfingers 7.12502
rthumb 45.9888 -3.82809
lclavicle -2.96935e-015 -8.94531e-015
lhumerus -5.36417 -31.7033 53.0759
lradius 137.653
lwrist 92.5856
lhand 18.7743 25.8719
lfingers 7.12502
lthumb 43.3916 49.978
rfemur 3.57574 5.99176 19.6873
rtibia 13.6874
rfoot -20.7154 -12.7455
rtoes -5.42337
lfemur 1.9006 1.09243 -15.4851
ltibia 11.0795
lfoot -9.80852 -2.97918
ltoes -2.49801
338
root 3.11818 17.6749 0.138529 -157.991 88.6402 -154.766
lowerback 7.8398 -0.374152 2.77874
upperback -2.43949 -0.256443 -0.785984
thorax -6.98493 -0.264646 -2.35416
lowerneck -4.48005 -5.37053 -4.90313
upperneck 1.81446 -7.13514 8.52497
head 1.91804 -3.41743 3.41082
rclavicle 4.34841e-016 1.98785e-016
rhumerus -7.64826 25.6901 -37.0763
rradius 142.503
rwrist -54.5516
rhand 21.4885 19.164
rfingers 7.12502
rthumb 45.9192 -3.96409
lclavicle 4.34841e-016 1.98785e-016
lhumerus -5.3602 -31.7276 53.0865
lradius 137.643
lwrist 92.63
lhand 19.8577 26.1853
lfingers 7.12502
lthumb 44.4025 49.9164
rfemur 3.62302 5.97905 19.6022
rtibia 13.7572
rfoot -20.7732 -12.7322
rtoes -5.434
lfemur 2.02276 1.07214 -15.577
ltibia 10.9879
lfoot -9.76023 -2.97872
ltoes -2.39974
339
root 3.1189 17.6745 0.137647 -159.741 88.6347 -156.462
lowerback 7.86994 -0.383388 2.77801
upperback -2.4096 -0.270341 -0.81434
thorax -6.97151 -0.271609 -2.38164
lowerneck -4.50912 -5.38485 -4.85508
upperneck 1.80608 -7.15482 8.51003
head 1.91896 -3.42639 3.39504
rclavicle 4.96962e-016 2.98177e-015
rhumerus -7.62749 25.6568 -37.1252
rradius 142.514
rwrist -54.5887
rhand 21.5464 19.1374
rfingers 7.12502
rthumb 45.9728 -3.96839
lclavicle 4.96962e-016 2.98177e-015
lhumerus -5.34772 -31.7231 53.0414
lradius 137.632
lwrist 92.7474
lhand 19.8962 26.1496
lfingers 7.12502
lthumb 44.4384 49.8671
rfemur 3.69163 5.96073 19.5598
rtibia 13.7571
rfoot -20.7823 -12.6896
rtoes -5.3922
lfemur 2.07626 1.04817 -15.6186
ltibia 10.9924
lfoot -9.79627 -2.96454
ltoes -2.64612
340
root 3.11952 17.6743 0.137265 -157.348 88.6026 -154.068
lowerback 7.8655 -0.381239 2.85884
upperback -2.39831 -0.258028 -0.796256
thorax -6.95676 -0.268304 -2.40986
lowerneck -4.49995 -5.39673 -4.87385
upperneck 1.73155 -7.16568 8.5261
head 1.89524 -3.43278 3.40418
rclavicle -1.75179e-015 1.35174e-014
rhumerus -7.64247 25.5723 -37.1048
rradius 142.517
rwrist -54.6161
rhand 21.7069 19.0626
rfingers 7.12502
rthumb 46.1217 -3.98103
lclavicle -1.75179e-015 1.35174e-014
lhumerus -5.34858 -31.6959 53.0226
lradius 137.628
lwrist 92.8138
lhand 18.8306 26.0528
lfingers 7.12502
lthumb 43.4442 50.1398
rfemur 3.70921 5.95085 19.6338
rtibia 13.7238
rfoot -20.7764 -12.7061
rtoes -5.47808
lfemur 2.05359 1.03932 -15.5489
ltibia 11.0347
lfoot -9.87546 -2.90505
ltoes -3.16157
341
root 3.12113 17.674 0.137774 -153.948 88.5535 -150.643
lowerback 7.89532 -0.381939 2.94093
upperback -2.40217 -0.246277 -0.749175
thorax -6.97769 -0.265379 -2.40826
lowerneck -4.44543 -5.3945 -4.93177
upperneck 1.66942 -7.15829 8.55361
head 1.8685 -3.43122 3.42653
rclavicle -6.57232e-015 1.03368e-014
rhumerus -7.71656 25.6163 -37.0829
rradius 142.552
rwrist -54.6217
rhand 21.6918 18.987
rfingers 7.12502
rthumb 46.1078 -4.06257
lclavicle -6.57232e-015 1.03368e-014
lhumerus -5.3711 -31.7012 53.0801
lradius 137.626
lwrist 92.7642
lhand 18.3926 26.098
lfingers 7.12502
lthumb 43.0349 50.3316
rfemur 3.77225 5.93898 19.7539
rtibia 13.6812
rfoot -20.7721 -12.7286
rtoes -5.50199
lfemur 2.05391 1.02775 -15.4368
ltibia 11.0926
lfoot -9.93145 -2.93772
ltoes -3.21945
342
root 3.12125 17.6742 0.139 -154.965 88.5704 -151.666
lowerback 7.9388 -0.378419 2.89705
upperback -2.42508 -0.244714 -0.750351
thorax -7.02666 -0.263781 -2.38507
lowerneck -4.47 -5.40296 -4.9773
upperneck 1.69338 -7.16927 8.59579
head 1.88606 -3.43528 3.44862
rclavicle -1.11816e-016 3.57812e-015
rhumerus -7.80256 25.6659 -37.0832
rradius 142.595
rwrist -54.6627
rhand 21.5899 18.8704
rfingers 7.12502
rthumb 46.0132 -4.21864
lclavicle -1.11816e-016 3.57812e-015
lhumerus -5.36207 -31.7007 53.0812
lradius 137.626
lwrist 92.6304
lhand 18.3647 25.9493
lfingers 7.12502
lthumb 43.0087 50.1922
rfemur 3.79855 5.94174 19.7319
rtibia 13.6238
rfoot -20.7384 -12.7595
rtoes -5.52267
lfemur 1.99673 1.03191 -15.4734
ltibia 11.1718
lfoot -9.93192 -2.94799
ltoes -3.24678
343
root 3.1219 17.6736 0.13903 -154.65 88.5867 -151.359
lowerback 7.94417 -0.362706 2.90642
upperback -2.43122 -0.222562 -0.751965
thorax -7.03495 -0.253566 -2.39517
lowerneck -4.47842 -5.41867 -4.97364
upperneck 1.68799 -7.18952 8.58023
head 1.88634 -3.44556 3.44142
rclavicle 3.35449e-016 -2.18663e-015
rhumerus -7.85371 25.6699 -37.0711
rradius 142.582
rwrist -54.6876
rhand 21.5227 18.8272
rfingers 7.12502
rthumb 45.9509 -4.28774
lclavicle 3.35449e-016 -2.18663e-015
lhumerus -5.3142 -31.692 53.0759
lradius 137.637
lwrist 92.6002
lhand 18.1738 25.8612
lfingers 7.12502
lthumb 42.8302 50.1669
rfemur 3.80195 5.95923 19.7345
rtibia 13.5985
rfoot -20.6921 -12.7895
rtoes -5.36502
lfemur 1.98598 1.05043 -15.4756
ltibia 11.199
lfoot -9.90157 -2.98921
ltoes -2.883
344
root 3.12267 17.6736 0.138741 -152.914 88.5934 -149.605
lowerback 7.97024 -0.357594 2.94608
upperback -2.42898 -0.209723 -0.736342
thorax -7.04699 -0.248819 -2.40291
lowerneck -4.46351 -5.42052 -4.96701
upperneck 1.65149 -7.19 8.56348
head 1.87044 -3.44694 3.43484
rclavicle 2.01269e-015 -1.17283e-014
rhumerus -7.86012 25.7096 -37.0532
rradius 142.552
rwrist -54.5751
rhand 21.4862 18.892
rfingers 7.12502
rthumb 45.917 -4.23698
lclavicle 2.01269e-015 -1.17283e-014
lhumerus -5.32228 -31.6994 53.0941
lradius 137.673
lwrist 92.5654
lhand 18.0227 25.915
lfingers 7.12502
lthumb 42.6888 50.27
rfemur 3.8086 5.98459 19.7716
rtibia 13.6239
rfoot -20.728 -12.7516
rtoes -5.3418
lfemur 2.03428 1.07422 -15.4382
ltibia 11.1601
lfoot -9.91037 -2.9653
ltoes -3.12584
345
root 3.12254 17.6747 0.140051 -153.673 88.6244 -150.388
lowerback 7.98605 -0.350038 2.88764
upperback -2.45674 -0.205016 -0.736543
thorax -7.08491 -0.244853 -2.37091
lowerneck -4.4924 -5.41348 -4.95118
upperneck 1.69985 -7.18288 8.53861
head 1.88903 -3.44253 3.42265
rclavicle -3.18055e-015 1.98785e-015
rhumerus -7.8672 25.7617 -37.0482
rradius 142.534
rwrist -54.5574
rhand 21.471 18.9039
rfingers 7.12502
rthumb 45.9029 -4.23095
lclavicle -3.18055e-015 1.98785e-015
lhumerus -5.33863 -31.6639 53.1071
lradius 137.688
lwrist 92.6159
lhand 17.9898 25.971
lfingers 7.12502
lthumb 42.658 50.3367
rfemur 3.73998 6.00433 19.7379
rtibia 13.6734
rfoot -20.6978 -12.7882
rtoes -5.60877
lfemur 2.04163 1.09553 -15.4692
ltibia 11.0867
lfoot -9.84122 -2.94996
ltoes -2.97705
346
root 3.12354 17.6747 0.139903 -154.851 88.6436 -151.564
lowerback 7.9756 -0.346021 2.87389
upperback -2.46118 -0.202284 -0.750526
thorax -7.08343 -0.243261 -2.37827
lowerneck -4.46973 -5.41076 -4.97909
upperneck 1.69593 -7.17903 8.56454
head 1.88602 -3.4409 3.43765
rclavicle -7.20594e-016 -3.97569e-016
rhumerus -7.88926 25.7758 -37.043
rradius 142.514
rwrist -54.5291
rhand 21.4797 18.9339
rfingers 7.12502
rthumb 45.911 -4.19766
lclavicle -7.20594e-016 -3.97569e-016
lhumerus -5.37902 -31.6763 53.1202
lradius 137.728
lwrist 92.6126
lhand 18.0284 25.9708
lfingers 7.12502
lthumb 42.6942 50.3239
rfemur 3.71921 6.01071 19.6941
rtibia 13.7097
rfoot -20.7019 -12.7453
rtoes -5.5319
lfemur 2.093 1.10078 -15.5079
ltibia 11.0241
lfoot -9.77544 -2.97902
ltoes -2.27417
347
root 3.1246 17.6751 0.140097 -157.601 88.6699 -154.297
lowerback 7.99701 -0.347907 2.82924
upperback -2.47124 -0.211513 -0.790341
thorax -7.10696 -0.247266 -2.39382
lowerneck -4.41094 -5.39547 -4.97836
upperneck 1.68113 -7.1606 8.61025
head 1.87144 -3.43216 3.45566
rclavicle 1.6027e-015 5.1684e-015
rhumerus -7.96072 25.8268 -37.1069
rradius 142.51
rwrist -54.4739
rhand 21.4486 19.0126
rfingers 7.12502
rthumb 45.8821 -4.13087
lclavicle 1.6027e-015 5.1684e-015
lhumerus -5.36376 -31.7027 53.0648
lradius 137.739
lwrist 92.5562
lhand 18.0389 25.8957
lfingers 7.12502
lthumb 42.704 50.2454
rfemur 3.73401 6.01032 19.6141
rtibia 13.7508
rfoot -20.7381 -12.711
rtoes -5.41919
lfemur 2.17152 1.09803 -15.5865
ltibia 10.9483
lfoot -9.77449 -2.96843
ltoes -2.24853
348
root 3.12745 17.6753 0.140303 -158.382 88.6418 -155.126
lowerback 7.93305 -0.366086 2.84853
upperback -2.48238 -0.236508 -0.807771
thorax -7.08388 -0.260512 -2.41949
lowerneck -4.48691 -5.39412 -5.01024
upperneck 1.76522 -7.16179 8.67021
head 1.91776 -3.42873 3.48039
rclavicle 2.50966e-015 -1.19271e-014
rhumerus -7.9767 25.8464 -37.1557
rradius 142.496
rwrist -54.4528
rhand 21.4549 19.0036
rfingers 7.12502
rthumb 45.8879 -4.1375
lclavicle 2.50966e-015 -1.19271e-014
lhumerus -5.34021 -31.7433 53.0257
lradius 137.762
lwrist 92.5203
lhand 17.8313 25.7597
lfingers 7.12502
lthumb 42.5097 50.1767
rfemur 3.69548 5.97647 19.6025
rtibia 13.7724
rfoot -20.82 -12.6822
rtoes -5.2743
lfemur 2.14725 1.06873 -15.5913
ltibia 10.8969
lfoot -9.76556 -2.95273
ltoes -2.40212
349
root 3.13137 17.6763 0.141792 -156.646 88.6449 -153.399
lowerback 7.88511 -0.364298 2.8736
upperback -2.47261 -0.232511 -0.801573
thorax -7.04576 -0.258771 -2.42755
lowerneck -4.54791 -5.39277 -4.95744
upperneck 1.82045 -7.16322 8.63335
head 1.94276 -3.42752 3.45588
rclavicle -1.04362e-015 6.95746e-015
rhumerus -7.97243 25.8275 -37.1747
rradius 142.486
rwrist -54.4398
rhand 21.4641 19.0077
rfingers 7.12502
rthumb 45.8964 -4.1298
lclavicle -1.04362e-015 6.95746e-015
lhumerus -5.33836 -31.766 53.0052
lradius 137.765
lwrist 92.499
lhand 17.9768 25.7447
lfingers 7.12502
lthumb 42.6459 50.1145
rfemur 3.69601 5.99371 19.6495
rtibia 13.7719
rfoot -20.8459 -12.6639
rtoes -5.37876
lfemur 2.15177 1.0881 -15.5486
ltibia 10.8885
lfoot -9.76277 -2.93719
ltoes -2.80843
350
root 3.13346 17.6765 0.141154 -155.767 88.622 -152.52
lowerback 7.86585 -0.38373 2.91913
upperback -2.46496 -0.254352 -0.802007
thorax -7.02836 -0.271131 -2.45062
lowerneck -4.56537 -5.37668 -4.91854
upperneck 1.81493 -7.14223 8.6199
head 1.93997 -3.41657 3.44443
rclavicle 1.66482e-015 -3.18055e-015
rhumerus -7.92077 25.8231 -37.1955
rradius 142.476
rwrist -54.4534
rhand 21.5216 18.9884
rfingers 7.12502
rthumb 45.9498 -4.12701
lclavicle 1.66482e-015 -3.18055e-015
lhumerus -5.34423 -31.7355 52.962
lradius 137.748
lwrist 92.5303
lhand 17.9837 25.7817
lfingers 7.12502
lthumb 42.6524 50.1493
rfemur 3.71379 5.98086 19.6779
rtibia 13.7468
rfoot -20.8058 -12.6648
rtoes -5.56848
lfemur 2.14939 1.07559 -15.519
ltibia 10.9115
lfoot -9.80548 -2.96703
ltoes -2.71988
